<?xml version="1.0" encoding="UTF-8"?>
<svg width="64" height="64" version="1.1" xmlns="http://www.w3.org/2000/svg">
    <path d="m32 8c-2.1368 5.2379-3.4342 8.6699-5.8125 13.752 1.458 1.5457 3.2505 3.3397 6.1582 5.3729-3.126-1.2862-5.2568-2.574-6.8498-3.9142-3.0442 6.3524-7.8172 15.398-17.496 32.789 7.605-4.3912 13.502-7.1001 18.996-8.1336a13.963 13.963 0 0 1-0.35175-3.2579l6e-3 -0.24c0.12075-4.8734 2.6565-8.6211 5.6602-8.3669 3.003 0.255 5.3415 4.4129 5.2208 9.2871a13.82 13.82 0 0 1-0.3105 2.619c5.4352 1.0642 11.276 3.7597 18.779 8.0924-1.4798-2.7247-2.805-5.1794-4.0665-7.5186-1.9868-1.5397-4.0582-3.5429-8.2852-5.7127 2.9055 0.75524 4.9875 1.6282 6.609 2.6025-12.824-23.877-13.86-27.051-18.257-37.371z" fill="#FF4A52"/>
</svg>
